# xmcd
#
# Track frame offsets:
#	222
#	20977
#	40495
#	56125
#	72812
#	93722
#	110880
#	132350
#	150805
#	168315
#
# Disc length: 2499 seconds
#
# Revision: 7
# Processed by: cddbd v1.5.2PL0 Copyright (c) Steve Scherf et al.
# Submitted via: EasyCDDAExtractor 11.5.0.1
#
DISCID=8d09c10a
DTITLE=蔡琴 - 談心
DYEAR=1985
DGENRE=Blues
TTITLE0=你是我心中雲一朵
TTITLE1=忽然想起你
TTITLE2=閣樓
TTITLE3=最後打烊的酒館
TTITLE4=我心底的窗
TTITLE5=慢舞
TTITLE6=悲劇
TTITLE7=一點溫柔
TTITLE8=風雨虹
TTITLE9=為何不早說
EXTD=YEAR: 1989
EXTT0=
EXTT1=
EXTT2=
EXTT3=
EXTT4=
EXTT5=
EXTT6=
EXTT7=
EXTT8=
EXTT9=
PLAYORDER=
